<svg xmlns="http://www.w3.org/2000/svg" viewBox="0 0 64 64">
  <clipPath id="encore-plate"><rect width="64" height="64" rx="10"/></clipPath>
  <g clip-path="url(#encore-plate)">
    <rect width="64" height="64" fill="#120A29"/>
    <g fill="#00E5FF" transform="translate(0 3)">
      <path fill-rule="evenodd" d="M27.52 .81A22.15 22.15 0 1 1 27.52 45.11A22.15 22.15 0 1 1 27.52 .81Z M20.53 24.05l-2.9 5.3-2.9-5.3-5.3-2.9 5.3-2.9 2.9-5.3 2.9 5.3 5.3 2.9z"/>
      <path d="M50.7 64h2.76l5.1-1.28-6.38-25.41-26.62 6.69 4.66 5.86 15.93-4 1.22 4.88-13.7 3.44 4.66 5.86 10.7-2.69z"/>
    </g>
  </g>
</svg>