<?xml version="1.0" encoding="UTF-8"?>
<svg id="_레이어_2" data-name="레이어 2" xmlns="http://www.w3.org/2000/svg" viewBox="0 0 141.51 72.79">
  <defs>
    <style>
      .cls-1 {
        fill: #85cedc;
        stroke-width: 0px;
      }
    </style>
  </defs>
  <g id="_레이어_1-2" data-name="레이어 1">
    <g>
      <path class="cls-1" d="m13.36,17.13c8.02-.98,13.43,3.56,13.43,14.06,0,8.42-5.41,15.03-13.43,16.01S0,43.62,0,34.47c0-10.09,5.41-16.37,13.36-17.34Zm16.1,28.63c19.31-2.37,29.2-.24,29.2,9.18s-9.89,14.64-29.2,17.01-29.2-.1-29.2-9.52,9.89-14.31,29.2-16.68Zm-22.99-12.95c3.74,1.28,8.82,1.26,12.9.76v-2c-4.08.5-8.42.23-11.69-.7l-1.2,1.95Zm14.03,25.68c5.28,1.83,12.36,1.83,18.24.77v-1.94c-5.55,1.01-12.29.84-17.37-.88l-.87,2.04Zm7.15-14.11v-28l13.97-1.71v6.75l1.74-.21v-6.75l13.96-1.71v28.67l-13.96,1.71v-8.42l-1.74.21v7.75l-13.97,1.71Z"/>
      <path class="cls-1" d="m101.57,26.63v-3.07l-39.42,4.83v-7.22l39.42-4.83v-1.47l-39.42,4.83v-8.55l56.66-7.95v20.31l-17.24,3.11Zm-39.42,14.66v-8.42l14.7-1.8v-3.14l23.25-2.85v3.14l18.71-3.29v8.42l-56.66,7.95Zm0,14.5v-2.41c7.62-.93,11.89-1.92,19.38-4.18v-1.8c-7.48,2.25-11.76,3.25-19.38,4.18v-8.82l56.66-7.95v8.75c-5.68,2.63-12.76,5.44-19.38,6.25v1.8c6.62-.81,13.7-3.61,19.38-6.25v10.09c-8.55,3.32-19.44,7.06-33.81,8.82-15.97,1.96-22.85-.81-22.85-8.49Z"/>
      <path class="cls-1" d="m140.38,30.37l-16.3,2-1.13-30.1,18.56-2.28-1.13,30.37Zm0,16.08l-12.3,1.51c-2.54.31-4.01-.52-4.01-3.12v-11.11l16.3-2v14.72Z"/>
    </g>
  </g>
</svg>